<svg id="visual" viewBox="0 0 780 450" width="780" height="450" xmlns="http://www.w3.org/2000/svg" xmlns:xlink="http://www.w3.org/1999/xlink" version="1.1"><path id="path1" d="M0 199L26 207.3C52 215.7 104 232.3 156 213.7C208 195 260 141 312 153C364 165 416 243 468 246C520 249 572 177 624 136.5C676 96 728 87 754 82.5L780 78L780 0L754 0C728 0 676 0 624 0C572 0 520 0 468 0C416 0 364 0 312 0C260 0 208 0 156 0C104 0 52 0 26 0L0 0Z" fill="#f7e6f8"></path><path id="path2" d="M0 303L26 320.2C52 337.3 104 371.7 156 370.2C208 368.7 260 331.3 312 331.3C364 331.3 416 368.7 468 371.7C520 374.7 572 343.3 624 324.7C676 306 728 300 754 297L780 294L780 76L754 80.5C728 85 676 94 624 134.5C572 175 520 247 468 244C416 241 364 163 312 151C260 139 208 193 156 211.7C104 230.3 52 213.7 26 205.3L0 197Z" fill="#d4cfec"></path><path id="path3" d="M0 451L26 451C52 451 104 451 156 451C208 451 260 451 312 451C364 451 416 451 468 451C520 451 572 451 624 451C676 451 728 451 754 451L780 451L780 292L754 295C728 298 676 304 624 322.7C572 341.3 520 372.7 468 369.7C416 366.7 364 329.3 312 329.3C260 329.3 208 366.7 156 368.2C104 369.7 52 335.3 26 318.2L0 301Z" fill="#f7e6f8"></path></svg>